<svg width="52" height="66" viewBox="0 0 52 66" fill="none" xmlns="http://www.w3.org/2000/svg">
<path fill-rule="evenodd" clip-rule="evenodd" d="M25.9997 0.515625C33.0566 0.515625 38.7209 6.19008 38.7209 13.2597C44.0434 13.3123 48.4581 17.3933 48.9281 22.6952L52 57.3526C52 62.0038 47.7289 65.8179 42.4357 65.8179H9.56428C4.27176 65.8179 0 62.0038 0 57.3526V57.2598L3.07024 22.6941C3.53992 17.4063 7.96979 13.3525 13.2784 13.3525V13.2597C13.2784 6.19008 18.9427 0.515625 25.9997 0.515625ZM25.9992 3.58558C20.7066 3.58558 16.3424 7.95704 16.3424 13.2597L35.656 13.3525V13.2597C35.656 7.9577 31.2923 3.58558 25.9992 3.58558ZM45.9017 23.0828C45.569 19.3132 42.4117 16.4224 38.6274 16.4224L38.6279 20.6575C38.628 21.5037 37.942 22.1897 37.0958 22.1897C36.2497 22.1897 35.5638 21.5038 35.5638 20.6576V16.4224H16.3424L16.3428 20.6575C16.3429 21.5037 15.657 22.1897 14.8108 22.1897C13.9647 22.1897 13.2787 21.5038 13.2787 20.6576V16.4224C9.54721 16.4224 6.43391 19.273 6.10577 22.99L3.06412 57.4459C3.06412 60.3301 6.03521 62.7486 9.56395 62.7486H42.4354C45.9634 62.7486 48.9352 60.423 48.9352 57.4459L45.9017 23.0828ZM29.6278 35.8376V31.959H28.7502C24.8997 31.959 21.7673 34.9461 21.7673 38.6173V46.4706H25.9607V38.6173C25.9607 37.1626 27.2899 35.8376 28.7502 35.8376H29.6278Z" fill="#BABCC7"/>
</svg>
